<svg width="64" height="64" viewBox="0 0 64 64" fill="none" xmlns="http://www.w3.org/2000/svg">
  <path
    d="M32 9C21.2 9 12.5 16.4 10.2 26.5C9.4 30.1 9 33.9 9 38C9 46.8 15.2 54.2 23.5 56.6C26.2 57.4 29.1 57.8 32 57.8C29.4 50.6 28 43.1 28 35.5C28 26.4 29.7 17.8 32 9Z"
    fill="#627E59"
  />
  <path
    d="M32 9C42.8 9 51.5 16.4 53.8 26.5C54.6 30.1 55 33.9 55 38C55 46.8 48.8 54.2 40.5 56.6C37.8 57.4 34.9 57.8 32 57.8C34.6 50.6 36 43.1 36 35.5C36 26.4 34.3 17.8 32 9Z"
    fill="#506648"
  />
  <circle cx="32" cy="35.5" r="7.5" fill="#C9A544" />
  <circle cx="32" cy="35.5" r="3.5" fill="#627E59" opacity="0.25" />
</svg>
