<svg width="1024" height="1024" viewBox="0 0 1024 1024" fill="none" xmlns="http://www.w3.org/2000/svg">
<path d="M671.415 512.8C662.43 502.885 648.88 490.316 639.125 480.675L583.62 425.262C578.45 420.031 573.23 414.854 567.96 409.731C564.285 406.168 560.29 402.619 557 398.74C549.7 390.138 561.19 377.955 570.01 385.905C574.65 390.085 579.005 394.717 583.43 399.128L610.1 425.721L695.39 510.61C706.07 508.87 717.205 507.995 728.085 506.47C792.935 497.388 875.505 481.699 898.53 410.087C899.74 406.315 901.195 401.034 904 398.453C908.43 394.801 914.665 396.45 917.775 401.067C963.03 468.251 978.945 558.625 905.97 614.64C886.335 628.56 865.54 636.73 841.355 639.445C816.04 642.29 789.86 638.18 764.695 641.875C762.375 642.215 756.82 640.315 754.015 640.33C747.38 640.365 740.725 640.39 734.09 640.4L508.945 640.47L288.684 640.45L225.089 640.455C211.067 640.48 196.382 641.16 182.625 639.55C109.116 630.935 58.6935 568.97 68.8235 495.092C72.431 465.318 83.7325 437.871 99.0545 412.143C102.529 406.309 111.558 387.469 122.458 400.804C123.868 402.53 125.438 410.068 126.413 412.876C129.983 423.169 135.104 432.857 141.598 441.604C182.55 495.922 266.73 501.945 328.547 510.685L398.201 441.193L437.013 402.541C441.855 397.757 452.495 386.18 457.997 383.561C466.266 383.005 472.868 390.23 467.702 397.786C464.993 401.749 459.354 406.702 455.876 410.147L435.827 430.026L382.565 483.167C372.908 492.803 362.304 502.94 353.042 512.79C423.927 518.34 495.058 520.1 566.13 518.065C587.46 517.545 608.775 516.665 630.075 515.425C643.545 514.615 658.095 513.21 671.415 512.8ZM291.281 622.205L695.4 622.245C706.265 622.225 723.135 621.66 733.395 622.53C722.32 610.905 710.22 600.005 698.89 588.71C685.405 575.265 688.975 547.075 688.54 529.285C653.955 532.69 619.255 534.845 584.51 535.745C524.755 537.735 464.948 537.275 405.233 534.355C388.502 533.645 371.788 532.59 355.103 531.18C350.808 530.815 338.939 529.98 334.974 529.12C335.216 596.405 332.451 576.715 291.281 622.205ZM225.717 622.415C220.095 616.615 213.144 611.02 209.969 603.685C206.866 594.685 207.334 586.065 211.755 577.515C214.629 571.955 260.524 527.41 268.328 520.425C259.448 519.49 250.223 517.435 241.488 515.58C202.724 507.355 156.736 489.469 131.007 457.814C127.192 453.092 123.659 448.148 120.426 443.01C118.854 440.477 112.937 428.849 111.765 427.779C91.7595 461.995 79.3355 503.035 89.65 542.51C96.834 569.62 114.635 592.685 139.033 606.51C164.097 620.99 189.608 623.24 217.678 622.285C220.254 622.195 223.151 622.23 225.717 622.415ZM304.812 529.73C297.894 530.215 288.474 529.855 282.167 532.95C278.623 534.69 235.639 577.7 230.742 583.265C228.505 585.81 225.927 588.635 226.23 592.21C226.449 594.8 227.544 597.23 229.026 599.33C232.56 604.35 243.999 615.02 249.077 619.12C252.111 621.565 256.08 623.64 260.107 623.13C267.016 622.25 283.83 602.99 289.194 597.55C293.145 593.71 297.151 589.885 301.056 586.025C307.628 579.52 313.955 575.47 315.676 565.675C316.798 559.28 316.357 553.535 316.902 547.265L294.835 569.41C292.089 572.16 285.596 578.96 282.863 580.94C281.254 582.1 279.32 582.72 277.336 582.715C270.137 582.67 265.468 574.475 269.924 568.055C273.271 563.235 307.393 532.085 307.304 529.76C306.037 529.565 306.071 529.54 304.812 529.73ZM716.24 529.73C716.295 529.895 716.325 530.06 716.395 530.215C717.395 532.39 720.99 535.12 722.74 536.825C729.685 543.595 750.025 561.995 754.135 568.78C755.545 571.11 756.44 574.08 755.615 576.775C754.855 579.25 752.75 580.935 750.485 582.005C748.32 583.025 746.035 583.215 743.785 582.32C738.13 580.065 713.32 553.105 706.91 547.08C707.025 561.265 705.75 570.05 716.63 580.49C723.115 586.715 730.515 593.65 736.76 600.02C743.84 607.12 751.655 615.85 759.485 621.635C765.7 626.23 774.845 620.655 779.05 615.425C784.575 608.555 803.56 597.42 796.185 586.665C793.985 583.455 787.755 577.695 784.985 574.94L763.65 553.74C757.325 547.44 750.135 539.83 743.755 533.92C738.685 529.22 723.24 530.845 716.24 529.73ZM911.85 427.733C893.915 466.364 862.8 489.259 823.75 503.585C803.665 510.955 777.23 517.61 756 520.66C767.965 531.715 779.64 543.945 791.325 555.45C797.94 561.96 806.68 570.115 812.215 577.41C814.375 580.25 816.01 587.49 816.17 591.215C816.37 595.93 815.49 600.63 813.59 604.95C808.325 614.06 804.34 615.39 798.365 622.495C810.395 621.83 822.39 622.505 834.39 621.765C880.505 618.92 922.58 587.89 934.345 542.42C943.535 506.89 934.31 470.826 918.56 438.695C917.495 436.529 913.715 428.803 911.85 427.733Z" fill="black"/>
</svg>
