<svg width="1024" height="1024" viewBox="0 0 1024 1024" fill="none" xmlns="http://www.w3.org/2000/svg">
<path d="M508.22 107.253C512.715 107.211 517.38 107.341 521.885 107.405C522.8 164.512 513.09 228.555 497.443 283.307C508.65 273.254 524.67 260.326 535.05 250.155C534.685 242.096 535.02 230.887 535.16 222.689L535.765 186.955C536.405 160.662 536.61 135.749 537.595 109.224C545.355 109.624 566.6 113.202 574.84 114.906C679.21 136.488 769.88 198.022 828.945 286.262C887.155 373.553 908.775 480.208 889.15 583.28C884.965 604.39 880.33 623.485 873.18 643.86C844.12 725.82 789.675 796.38 717.765 845.28C644.155 895.07 556.165 919.165 467.455 913.82C452.586 912.795 435.969 910.81 421.229 908.625C411.796 907.23 400.951 904.07 391.38 902.17C393.327 892.615 399.296 874.825 402.228 865.32C407.479 848.295 412.199 830.83 417.338 813.89C401.63 809.94 386.835 804.545 371.593 799.405C352.926 793.11 354.623 785.255 353.517 767.905C352.817 758.19 352.276 748.465 351.892 738.735L349.216 683.205C348.857 675.07 348.744 663.335 347.329 655.54C346.535 651.16 339.184 639.63 336.795 635.285C329.956 622.85 322.052 610.455 315.942 597.6C328.216 591.79 340.394 585.775 352.471 579.565C358.501 576.48 365.22 572.545 371.297 569.855C376.179 584.68 383.884 600.82 389.747 615.3C391.469 619.555 398.691 635.02 398.987 638.11C400.166 650.435 397.832 668.445 397.393 681.055C396.428 708.805 395.551 736.695 394.183 764.32C398.433 770.115 404.059 774.945 409.18 780.01C414.054 784.835 418.817 789.755 423.829 794.42C426.402 783.6 429.363 773.035 432.401 762.21C434.924 753.22 436.869 741.785 440.599 733.32C441.187 731.985 447.727 726.785 449.172 725.385C453.716 720.99 477.961 699.885 479.75 695.965C478.455 695.08 456.602 694.845 453.107 694.75C446.087 694.585 434.822 695.34 430.175 689.835C428.792 688.12 426.408 685.205 426.465 682.815C427.336 646.505 434.064 609.35 436.061 573.11C433.606 572.675 430.816 572.415 428.318 572.125C416.459 570.745 404.689 568.725 392.843 567.285C395.46 558.27 396.987 549.215 398.925 540.035C401.012 530.15 404.391 519.265 405.439 509.3C425.877 512.25 446.901 519.94 467.049 524.215C480.811 527.14 491.171 534.47 490.039 549.925C488.944 564.875 484.677 579.765 481.908 594.485L473.294 639.46C471.975 646.47 471.063 654.65 469.336 661.38C473.223 664.545 481.398 667.545 486.097 669.89C490.931 672.3 495.502 674.75 500.265 677.32C501.635 675.755 503.155 674.16 504.305 672.42C506.48 669.125 509.24 643.495 510.02 638.095L518.635 577.965C519.44 571.99 521.39 561.78 521.57 556.32C521.165 547.905 519.96 539.1 518.705 530.735C514.735 504.22 512.475 475.493 506.835 449.424C509.105 442.089 512.505 433.399 515.09 425.792C517.76 420.282 521.125 402.362 525.015 398.383C533.615 389.572 547.03 377.878 556.19 369.74C553.995 361.479 552.6 350.58 550.94 342.038C547.385 323.711 543.49 305.063 540.87 286.599C536.46 290.147 527.86 300.715 523.615 305.48L487.638 345.94C484.35 349.668 470.249 364.29 468.651 367.376C453.652 396.339 437.038 427.037 415.001 451.361C416.794 455.643 419.25 463.634 416.737 467.694C404.293 487.794 398.96 497.908 375.253 486.231C373.056 498.354 365.452 506.14 358.664 515.93C342.53 539.195 323.248 558.65 295.558 567.215C288.331 560.92 285.01 555.655 281.845 546.625C316.187 544.64 335.411 527.26 347.472 496.155C355.591 493.223 365.6 489.663 372.606 484.642C374.596 483.216 376.476 474.545 376.277 471.905L377.695 471.475C381.947 472.237 386.676 479.148 391.474 477.418C395.798 475.859 401.011 467.235 403.105 463.125C401.435 458.744 401.063 457.773 397.378 454.663C388.116 458.92 382.519 468.995 373.556 470.467C372.758 470.435 371.246 470.505 370.557 470.94C342.147 488.891 314.05 491.452 281.074 491.493C285.277 470.052 286.817 445.183 290.953 423.41C287.835 425.067 260.122 446.582 258.806 448.487C253.381 456.34 250.634 467.844 247.273 476.831C241.631 491.484 236.106 506.18 230.7 520.925C228.376 527.2 224.757 537.565 221.067 542.995C219.223 545.71 214.033 548.08 210.64 548.3C205.93 548.735 201.476 547.315 197.868 544.245C193.675 540.675 191.901 533.89 193.355 528.59C199.617 505.93 205.961 483.3 212.001 460.595C213.493 454.985 221.459 421.496 224.027 419.081C233.13 410.516 247.076 399.167 257.008 390.702L287.823 364.517C298.372 355.641 306.371 346.942 320.467 344.41C341.774 340.583 363.203 339.068 384.692 336.885C397.541 335.471 410.372 333.895 423.181 332.158C427.046 331.652 442.551 330.396 444.719 329.017C455.612 321.836 465.264 312.127 475.265 303.698C481.036 298.835 483.119 284.544 485.203 277.105C500.885 221.132 507.505 165.209 508.22 107.253ZM383.453 384.478C381.061 403.913 379.048 423.392 377.415 442.905C377.256 444.923 376.46 451.398 376.74 452.823C378.228 452.122 378.153 452.143 379.349 450.995C387.8 442.912 391.675 438.341 403.797 442.177C419.603 423.87 433.034 403.39 444.526 382.157C445.636 380.107 449.566 373.777 449.66 371.871C448.464 371.374 449.091 371.471 447.777 371.596L406.986 379.904C399.365 381.392 390.84 382.57 383.453 384.478ZM648.215 374.187C650.515 386.815 653.845 399.241 656.05 411.887C656.49 414.415 656.84 416.958 657.335 419.476C661.595 419.889 664.545 419.962 668.845 419.965C669.645 414.857 670.995 402.53 672.085 398.463C676.83 396.429 685.82 393.94 690.96 392.664C694.6 391.4 697.715 390.434 701.11 388.596C702.395 382.654 703.04 374.642 704.33 369.659C698.905 367.128 686.875 362.27 680.82 361.977C679.695 364.489 682.055 379.632 682.645 382.967C679 383.588 674.635 384.215 671.135 385.154L670.95 384.479C669.89 380.473 668.715 360.821 666.175 359.491C664.505 358.617 662.24 358.919 660.41 359.013C657.185 361.216 650.5 370.501 648.215 374.187ZM585.73 355.538C579.95 367.969 579.19 376.707 574.88 389.22C577.055 395.213 578.365 397.533 581.52 403.177C588.11 402.45 592.49 401.332 597.935 405.612C598.555 406.102 599.165 406.604 599.76 407.118C602.91 409.491 605.57 411.422 608.86 413.579C617.77 410.147 620.495 409.344 620.11 398.983C619.995 395.9 620.49 391.398 621.115 388.295C616.255 385.219 610.175 382.788 604.88 379.745L604.84 379.08C604.555 373.581 606.15 351.104 601.81 348.797C597.53 351.535 590.94 352.892 585.73 355.538ZM540.17 635.205C538.49 643.245 536.55 651.225 534.35 659.135C532.645 665.355 527.98 674.31 532.125 679.21C534.295 681.78 541.85 693.32 544.715 693.955C545.805 693.58 545.82 693.69 546.72 693.05C554.765 687.46 559.83 685.85 567.025 681.36L566.795 670.3C563.765 665.6 559.575 659.84 557.925 654.65C560 650.205 561.56 648.575 563.945 644.64C561.46 640.56 559.295 636.91 555.965 633.46L554.65 633.145C549.85 633.99 545.02 634.68 540.17 635.205ZM617.905 643.135C620.76 655.195 624.895 658.665 634 667.01C639.155 665.575 643.99 664.24 649.07 662.53C652.62 661.345 655.895 660.445 659.51 659.465C661.22 656.305 664.795 647.86 664.04 644.345C660.085 639.595 651.245 647.025 647.635 641.985C643.86 636.72 636.555 628.765 634.15 623.005C636.03 614.8 639.635 609.14 641.225 602.775C639.885 602.04 639.865 602.17 638.3 602.175C635.95 602.535 629.01 603.585 628.31 605.675C626.94 609.74 628.21 617.44 627.085 621.785C625.13 629.33 620.33 635.965 617.905 643.135ZM576.26 548.44C572.77 549.115 568.62 549.805 565.215 550.625C561.46 556.28 557.44 565.09 555.5 571.685C556.17 575.15 568.26 586.02 571.5 588.63C578.65 586.32 586.73 582.445 593.76 579.485C597.515 573.015 606.56 545.17 608.155 537.235C605.69 534.475 597.57 527.32 594.385 525.35C591.07 537.09 587.54 557.48 584.55 569.215C583.16 574.65 565.43 579.405 572.575 563.99C573.75 561.015 575.88 551.77 576.26 548.44ZM557.625 211.549C557.13 229.449 561.04 236.327 566.56 253.402L568.11 257.722L568.795 257.819C574.285 252.955 572.475 244.231 584.145 239.081C582.24 222.332 584.32 222.871 594.03 210.564C593.975 207.681 593.59 197.792 591.965 195.969L591.325 195.872C588.375 198.136 585.675 198.348 582.465 200.026C579.52 201.566 573.69 207.08 571.185 208.42C569.105 209.534 560.32 210.919 557.625 211.549ZM614.115 457.48C614.09 463.088 614.84 470.31 614.52 475.419C607.605 485.592 593.12 500.615 622.245 494.253C622.31 494.208 622.37 494.164 622.43 494.12C631.585 476.708 634.23 479.791 652.195 477.904C652.355 474.85 652.455 471.144 652.765 468.158C648.555 464.858 644.27 461.629 640.075 458.305C638.82 457.31 633.71 452.64 632.825 452.155C625.995 453.698 620.42 455.915 614.115 457.48ZM705.53 289.742C707.095 295.929 715.56 310.162 718.71 316.488C699.73 325.001 706.49 317.741 698.42 304.391C694.51 308.079 693.77 309.181 690.49 313.416C691.775 318.366 693.045 321.515 695.11 326.214C695.555 326.728 696.97 328.316 697.485 328.501C705.065 331.227 716.2 332.709 723.905 334.203C732.62 325.361 732.395 321.295 733.83 308.931C726.375 299.524 715.81 289.787 709.62 281.517C707.63 284.426 706.575 286.236 705.53 289.742ZM600.7 261.556C595.83 260.537 593.36 260.344 588.34 260.638C586.045 262.034 585.04 263.688 584.53 266.363C582.295 278.184 583.08 276.689 574.855 284.57C575.36 287.645 575.82 290.845 576.435 293.9C577.68 300.036 582.23 297.586 586.125 295.997C594.95 291.788 599.785 279.714 600.86 270.427C601.165 267.804 600.845 264.239 600.7 261.556ZM642.45 551.84C644.17 554.315 652.545 567.795 654.025 568.4L655.155 568.275C659.935 566.25 663.195 564.815 667.475 561.825C661.415 549.02 657.735 550.7 659.145 534.465C659.305 532.605 659.685 528.565 658.055 527.5C655.685 527.38 655.155 527.47 652.78 527.825C649.825 528.15 649.175 528.18 646.455 529.3C644.915 536.82 644.005 544.335 642.45 551.84ZM512.06 746.085C514.655 744.985 517.8 737.145 518.95 734.375C516.525 729.33 514.54 725.96 511.07 721.525C506.505 720.95 501.685 721.03 497.069 720.985C494.507 725.495 491.622 730.115 489.145 734.545C491.905 739.02 493.802 741.95 497.158 745.99C502.125 746.135 507.095 746.17 512.06 746.085ZM559.48 722.995C553.29 728.62 537.06 741.565 540.41 750.1C542.62 752.095 548.285 753.15 551.375 754.31C558.24 757.1 561.64 758.28 564.8 750.035C567.505 742.975 566.915 735.885 566.905 728.49C563.7 725.855 563.2 724.4 559.48 722.995ZM574.15 839.665C581.3 847.215 582.44 852.095 592.83 846.665C597.955 843.2 601.235 840.89 604.61 835.535C604.335 832.045 603.905 827.545 602.985 824.16C596.66 823.83 588.955 823.905 582.55 824.1C579.73 827.145 575.49 835.6 574.15 839.665ZM636.84 747.14C650.405 740.86 642.22 732.31 639.16 722.01C638.15 718.61 640.44 705.77 638.49 705.045C626.61 710.345 614.82 715.77 602.63 720.32C600.19 721.225 597.88 722.25 595.655 723.6C596.475 727.52 596.815 732.02 599.64 734.59C601.745 735.38 602.94 734.865 604.975 733.955C608.14 732.53 611.32 731.135 614.515 729.775C615.98 729.44 618.345 728.705 619.415 729.605C627.08 736.02 627.175 741.755 636.84 747.14ZM732.32 407.398C730.69 413.113 729.11 418.394 727.975 424.241C730.365 430.778 733.345 435.875 736.11 442.069L745.125 441.948C746.705 441.919 747.16 442.225 748.03 441.424C748.655 437.332 747.99 412.76 747.52 407.949C742.45 407.902 737.38 407.719 732.32 407.398ZM760.48 433.095L769.88 430.527C771.66 429.252 771.475 424.467 771.625 422.137C768.415 420.296 764.045 417.662 760.695 416.154C761.05 421.133 760.64 427.973 760.48 433.095ZM454.346 840.125C452.168 840.385 450.185 840.445 448.869 842.41C444.139 849.475 441.429 863.995 442.028 872.1C450.585 871.97 458.974 871.015 467.525 870.865C471.756 870.57 475.264 870.455 479.408 869.41C479.479 865.26 479.477 862.115 479.203 857.99C476.131 856.125 471.948 855.23 469.534 852.915C462.871 846.53 465.513 839.465 454.346 840.125ZM601.44 232.928C606.43 236.243 617.005 247.855 618.455 248.231L619.305 247.597C622.2 245.388 630.54 239.052 626.49 235.488C622.94 232.366 612.685 219.679 609.355 217.741C606.085 223.035 603.635 227.104 601.44 232.928ZM693.69 525.26C696.365 526.82 697.485 527.18 700.325 528.17C699.445 523.995 698.51 516.925 694.97 514.455C694.675 514.49 693.915 514.54 693.675 514.63C691.49 515.37 686.35 516.395 685.065 517.5C684.99 520.54 691.08 524.225 693.69 525.26ZM652.595 609.675C649.025 617.19 644.04 625.195 654.08 629.265C657.75 630.755 657.42 630.755 661.305 629.315C663.325 627.98 665.005 627.16 666.3 625.15C666.76 619.95 656.37 614.345 653.395 610.38C653.115 610.005 652.985 609.955 652.595 609.675ZM530.45 476.828C532.66 485.486 533.985 492.59 535.755 501.275C537.81 501.955 541.395 498.27 542.95 496.754C544.755 494.747 546.27 493.204 547.715 490.905C547.79 488.201 547.905 485.429 547.91 482.731C541.99 479.138 537.415 477.641 530.45 476.828ZM680.395 192.364C677.565 182.025 677.3 177.329 665.49 174.927C668.96 185.479 670.465 189.155 671.955 200.098L676.41 195.914L680.395 192.364ZM592.9 479.733L594.095 480.741C598.31 479.497 602.14 469.071 602.395 464.99L601.865 463.924C599.63 465.33 597.33 466.85 595.29 468.504C590.13 472.686 588.22 474.526 592.9 479.733ZM773.385 496.913C777.28 493.118 778 491.495 780.165 486.565C778.4 482.024 772.255 469.227 766.66 469.525C758.555 471.893 753.905 474.143 746.665 478.649C746.625 483.661 746.765 488.674 747.08 493.677C749.275 496.187 750.69 497.926 753.295 500.02C755.505 499.244 757.215 498.552 759.545 498.164C764.525 497.451 768.345 497.065 773.385 496.913ZM560.27 519.065C557.255 514.98 555.545 512.68 551.925 509.005C547.325 513.81 543.665 518.21 539.295 522.905C541.215 527.03 542.05 529.26 545.205 532.665C546.32 533 546.37 533.05 547.525 533.09C549.6 533.15 551.995 533.49 553.365 531.98C557.41 527.51 556.12 524.145 560.27 519.065ZM684.795 411.94C686.305 410.701 689.01 408.821 689.67 407.164L689.075 406.512L687.215 406.47C683.955 407.631 682.68 408.822 683.75 412.457L684.34 412.693L684.795 411.94ZM548.225 426.956C545.375 423.718 541.6 419.316 538.555 416.375C534.87 421.998 527.29 443.834 526.615 451.319C526.335 454.403 526.76 457.575 527.13 460.693C537.13 462.184 544.265 464.899 553.625 468.599C557.155 465.108 559.035 462.465 562.15 459.103C563.565 457.513 564.295 456.929 564.09 454.771C563.6 449.533 561.475 443.851 559.84 438.807C558.765 443.718 557.495 449.038 556.68 453.964C552.35 453.637 542.63 454.012 544.095 447.114C545.57 440.166 547.86 434.196 548.225 426.956ZM486.194 787.57C483.238 797.37 483.579 799.06 478.974 808.925C482.135 810.515 485.563 812.155 488.666 813.805C490.79 811.05 494.099 807.015 495.941 804.21C494.339 801.305 489.263 791.675 487.822 788.195C487.815 788.18 486.43 787.63 486.194 787.57ZM678.795 495.684C679.065 498.897 679.24 501.11 679.86 504.28C685.95 502.24 693.755 497.741 699.17 501.925C702.82 504.745 708.55 509.555 709.755 514.13C710.75 519.66 711.205 526.265 712.25 531.28C714.45 530.82 716.685 530.435 718.8 529.69C719.635 521.54 720.24 514.475 720.235 506.235C718.21 503.385 703.44 483.272 702.37 482.936C695.055 486.93 685.66 491.414 678.795 495.684ZM648.47 168.922C644.455 171.3 638.14 174.795 634.64 177.571C634.535 184.589 634.345 191.606 634.07 198.619C638.095 200.046 645.405 203.355 648.69 206.014C652.185 208.22 658.82 201.603 660.97 198.972C659.63 195.286 651.285 170.026 649.48 168.861L648.47 168.922ZM574.685 139.964C571.425 141.582 565.655 144.67 562.775 146.828C564.39 156.151 566.525 160.969 568.59 169.492C574.66 169.38 580.225 169.982 586.26 170.361C591.07 170.663 595.22 171.527 597.205 166.447C598.755 161.918 599.215 158.116 600.285 153.562C597.325 150.189 593.42 147.394 589.64 144.962C588.15 146.408 588.415 152.923 588.35 155.324C568.655 158.167 577.46 150.392 575.435 140.467L574.685 139.964ZM641.185 322.259C650.215 317.728 653.485 313.701 659.46 305.49C660.665 302.908 660.52 302.642 659.375 299.659C657.515 294.809 655.375 289.695 653.13 285.018C642.38 281.95 639.635 281.652 643.275 294.025C644.605 298.559 644.14 300.389 639.43 301.257L638.65 301.406C636.19 301.85 634.655 301.884 632.37 300.732C630.6 297.252 629.805 287.46 629.21 283.321C629.19 283.194 628.39 282.481 628.11 282.311C622.995 287.626 620.645 289.61 620.845 297.666C620.94 301.537 621.12 305.948 621.6 309.797C628.5 313.578 634.275 318.975 641.185 322.259ZM572.46 768.655C558.61 771.14 554.155 777.985 549.025 790.41L549.79 791.045C554.15 794.68 556.75 799.315 563.18 798.36C575.175 796.18 580.955 795.21 587.03 783.305C584.31 780.15 576.4 768.05 572.46 768.655ZM461.683 755.07L461.563 755.65C460.486 761.075 460.216 766.775 459.349 772.245C458.273 779.04 455.696 785.46 452.926 791.715C455.264 797.185 457.075 801.145 460.128 806.385C464.128 803.66 466.21 802.575 469.015 798.595C473.942 790.69 471.041 781.945 473.975 776.3C477.208 770.085 487.47 777.99 482.323 761.685C477.783 761.33 474.737 761.275 470.431 759.62C467.135 758.355 464.658 756.4 461.683 755.07ZM515.775 809.805C512.89 814.265 509.975 818.33 506.885 822.64C511.185 836.85 510.015 835.055 504.395 847.175C507.07 850.63 510.685 855.61 513.505 858.77C514.885 856.85 516.195 855.035 517.485 853.05C520.26 848.035 523.175 843.665 526.985 839.35C530.22 835.69 534.125 833.12 536.515 829.02C534.485 824.815 530.91 816.85 528.16 813.435C526.805 813.005 516.765 809.965 515.775 809.805Z" fill="black"/>
<path d="M342.078 251.077C364.207 248.004 384.609 263.527 387.549 285.674C390.489 307.82 374.844 328.129 352.68 330.936C330.703 333.72 310.603 318.235 307.687 296.276C304.772 274.316 320.136 254.124 342.078 251.077Z" fill="black"/>
<path d="M328.517 501.71L329.732 501.59L330.497 502.235C330.483 502.565 330.495 502.98 330.31 503.275C324.464 512.735 317.43 521.07 307.386 526.38C299.685 530.45 286.094 534.61 277.346 532.105C272.754 535.19 260.214 543.285 257.048 546.715C254.89 562.77 253.171 578.875 250.227 594.85C241.545 642.825 224.928 689.015 201.061 731.525C195.651 740.96 189.596 750.525 183.637 759.62C180.846 763.885 177.552 767.67 174.882 771.955L174.557 772.485C173.822 771.7 172.989 770.89 172.227 770.12C169.516 767.875 167.359 766.185 165.768 763.03C167.632 758.47 175.325 747.405 178.331 742.615C185.039 731.965 191.309 721.05 197.125 709.89C225.259 656.335 239.16 596.67 244.059 536.71C251.23 531.675 273.051 519.84 277.777 515.42C278.569 511.745 278.831 508.29 279.196 504.55C298.063 504.585 309.422 504.145 328.517 501.71Z" fill="black"/>
<path d="M381.277 503.805C384.438 503.995 389.151 504.96 392.405 505.53C392.003 510.195 390.419 515.845 389.616 520.555C387.133 535.125 382.351 551.15 379.905 565.48C372.568 564.955 363.887 562.31 356.688 563.135C352.491 563.62 321.837 579.845 316.233 583.135L315.814 583.35C315.271 583.64 314.725 583.92 314.176 584.2C308.249 587.2 307.108 581.33 304.987 576.75C306.608 576.31 308.212 575.805 309.795 575.245C337.645 565.17 368.605 530.49 381.277 503.805Z" fill="black"/>
</svg>
