<svg width="1024" height="1024" viewBox="0 0 1024 1024" fill="none" xmlns="http://www.w3.org/2000/svg">
<path d="M667.42 206.999C764.175 202.34 846.415 276.933 851.195 373.681C855.97 470.429 781.48 552.76 684.74 557.66C587.83 562.565 505.32 487.917 500.535 391C495.746 294.083 570.495 211.667 667.42 206.999ZM685.225 534.97C769.365 529.76 833.425 457.457 828.455 373.306C823.485 289.154 751.36 224.892 667.195 229.627C582.695 234.381 518.125 306.855 523.115 391.339C528.1 475.824 600.755 540.195 685.225 534.97Z" fill="black"/>
<path d="M538.885 369.682C550.875 371.976 556.01 388.821 555.43 399.578C554.345 401.099 549.49 407.274 550.21 408.512C553.945 414.934 561.945 420.58 566.05 426.654C569.45 431.679 571.41 439.08 573.1 444.66C575.02 441.59 577.46 436.753 580.835 435.241C588.63 431.744 599.23 436.787 602.505 444.438C603.84 447.625 604.47 451.064 604.35 454.517C603.91 465.62 597.065 463.404 595.205 467.858C596.135 470.962 600.32 471.104 603.45 471.513C618.945 473.539 623.46 479.592 632.43 490.907C639.915 482.438 649.97 480.012 660.78 483.707C670.055 486.877 673.105 491.834 677.04 500.22C679.72 495.237 681.26 491.354 685.82 487.818C691.75 483.266 699.27 481.309 706.67 482.393C713.955 483.53 716.605 485.913 720.615 491.359C727.24 485.788 729.645 479.846 738.045 474.866C743.015 471.919 755.345 470.759 757.05 468.385C756.765 465.092 752.7 463.344 749.885 460.297L749.5 459.868C745.79 444.958 756.905 430.925 773 434.626C776.315 435.389 776.905 440.495 778.555 441.258C781.185 439.655 784.205 429.095 786.395 425.927C789.92 420.828 794.415 417.024 798.605 412.522C803.795 406.94 797.945 403.968 797.36 395.417L797.32 394.768C797.505 391.646 798.165 388.571 799.29 385.652C801.225 380.502 806.575 372.476 811.375 370.283C818.04 371.984 811.275 410.742 809.455 417.9C800.305 452.743 777.845 482.602 746.905 501.055C679.345 540.985 595.665 519.485 556.06 451.548C544.195 431.201 537.935 408.074 537.91 384.52C537.87 379.952 537.775 373.977 538.885 369.682Z" fill="black"/>
<path d="M672.38 451.567C676.92 451.239 680.645 451.157 684.87 453.293C688.75 455.212 691.62 458.702 692.755 462.878C695.2 471.764 689.705 478.544 681.125 480.42C677.135 481.597 672.12 481.053 668.44 479.078C664.825 477.153 662.14 473.853 660.985 469.922C658.295 460.86 663.68 453.85 672.38 451.567Z" fill="black"/>
<path d="M625.67 447.201C645.79 444.119 657.58 467.535 639.665 476.702C631.015 478.95 623.78 475.212 619.425 467.752C614.015 458.483 617.125 451.722 625.67 447.201Z" fill="black"/>
<path d="M724 447.163C745.94 447.794 739.545 475.154 720.575 477.133C699.41 476.84 701.81 449.165 724 447.163Z" fill="black"/>
<path d="M653.05 415.624C672.51 415.063 675.79 438.993 657.605 442.525C638.78 445.281 633.84 418.12 653.05 415.624Z" fill="black"/>
<path d="M696.19 416.095C703.025 415.635 709.38 415.795 712.43 423.287C713.75 426.603 713.71 430.307 712.315 433.592C710.19 438.614 706.765 440.417 702.105 442.207C698.115 442.976 695.15 443.169 691.345 441.234C688.325 439.735 686.075 437.032 685.15 433.789C682.72 425.145 687.905 418.296 696.19 416.095Z" fill="black"/>
<path d="M611.395 407.114C627.175 407.265 634.32 429.949 617.175 436.105C599.255 435.908 593.155 410.256 611.395 407.114Z" fill="black"/>
<path d="M740.445 407.559C744.585 407.235 745.47 407.391 749.125 409.337L749.395 409.741C756.51 420.19 751.765 433.227 739.295 435.726C730.115 435.182 727.515 429.673 725.79 421.47C728.685 413.66 732.04 409.592 740.445 407.559Z" fill="black"/>
<path d="M571.11 393.475C586.78 393.523 594.735 417.603 578.955 422.042C563.71 422.409 555.35 400.219 571.11 393.475Z" fill="black"/>
<path d="M778.34 393.526C796.16 392.148 793.105 413.818 778.055 420.818C759.915 422.55 761.83 399.182 778.34 393.526Z" fill="black"/>
<path d="M596.345 368.112C598.385 368.001 601.3 367.69 603.235 368.317C613.95 371.788 617.285 389.255 605.92 393.981C587.255 395.478 582.71 372.81 596.345 368.112Z" fill="black"/>
<path d="M751.995 367.041C756.26 366.647 757.135 367.253 761.06 368.855C767.205 377.685 764.135 389.352 753.845 392.991C736.66 393.757 736.35 372.777 751.995 367.041Z" fill="black"/>
<path d="M562.83 353.073C564.05 353.021 567.225 352.815 568.26 353.192C578.43 356.895 581.135 372.23 570.265 376.911C557.305 379.026 554.59 366.663 557.92 356.698C559.38 355.487 561.265 354.202 562.83 353.073Z" fill="black"/>
<path d="M785.935 353.046C800.285 353.054 797.955 367.9 791.22 376.169L785.865 377.971C772.71 378.268 774.045 359.081 785.935 353.046Z" fill="black"/>
<path d="M544.82 334.194C550.855 338.847 552.09 355.345 543.795 359.733C542.37 359.859 541.19 360.043 539.79 360.264C539.975 352.755 542.605 341.447 544.82 334.194Z" fill="black" fill-opacity="0.988235"/>
<path d="M805.34 337.702C809.485 339.672 812.69 356.4 811.85 360.65L810.81 360.97C800.25 357.203 802.495 346.036 805.34 337.702Z" fill="black"/>
<path d="M496.89 461.725C498.318 463.017 502.04 472.818 503.755 475.777C508.395 483.79 513.255 491.284 518.505 498.892C518.05 504.785 513.14 518.025 510.88 524.18C499.945 553.965 489.683 583.955 479.808 614.12C475.107 628.48 468.336 643.745 464.836 658.335C466.742 662.185 468.003 664.645 469.326 668.69C468.974 670.62 468.501 672.525 467.91 674.395C462.341 692.15 454.566 709.535 447.328 726.67C436.146 753.145 421.142 791.13 403.816 813.46C398.429 820.405 391.839 826.06 384.026 830.11C358.421 843.375 282.671 843.015 251.592 842.245C245.21 842.09 238.705 842.255 232.346 841.715C218.386 840.53 203.993 838.38 190.643 834C172.457 828.04 154.675 812.335 145.987 795.36C132.477 771.625 126.449 731.25 136.096 705.505C141.15 692.015 154.055 677.76 167.821 673.04C229.09 652.02 292.929 697.275 347.602 719.565C357.881 723.755 369.388 726.605 379.582 721.795C406.106 709.285 406.175 670.685 422.816 650.005C423.186 649.545 430.675 646.58 432.164 645.93C437.029 639.2 443.955 616.15 447.126 606.73L481.042 507.62L490.26 479.804C491.764 475.24 494.725 465.599 496.89 461.725ZM331.7 812.99C340.547 812.62 350.196 810.92 356.37 803.94C361.419 798.23 362.339 790.265 361.742 782.94C360.758 770.855 355.713 756.8 346.159 748.835C328.788 734.35 249.451 705.685 224.775 700.8C217.699 699.4 210.87 699.075 203.691 699.655C173.685 703.98 169.466 727.93 173.398 753.99C175.582 768.47 181.678 788.905 194.17 798.315C210.2 809.015 239.068 808.955 257.999 810.59C282.334 812.685 307.397 813.46 331.7 812.99Z" fill="black"/>
<path d="M187.079 736.94C188.598 736.975 190.112 737.115 191.612 737.35C201.359 738.82 211.82 742.405 221.51 744.41C250.372 750.385 279.182 756.95 307.907 763.585C318.395 766.155 329.091 768.09 339.462 771.1C343.911 772.39 342.465 779.795 341.734 783.06C335.637 783.265 311.923 778.295 305.07 777.135C287.645 774.185 270.016 771.125 252.577 768.15C241.003 766.235 229.42 764.385 217.826 762.6C208.581 761.245 199.58 760.25 190.456 758.185C188.267 751.83 187.252 743.655 187.079 736.94Z" fill="black"/>
<path d="M212.82 712.035C219.207 712.29 231.308 715.87 237.852 717.72C264.698 725.43 291.19 734.325 317.249 744.375C323.596 746.79 330.417 749.135 336.391 752.3C338.63 753.485 342.874 759.39 340.129 761.98C336.773 763.01 327.373 760.145 323.12 759.175C308.661 754.83 291.079 751.11 276.295 747.355C265.669 744.655 254.179 741.505 243.624 739.165C231.316 736.515 219.029 733.76 206.765 730.91C204.284 730.34 193.724 728.045 192.074 727.24C192.073 721.74 207.502 713.355 212.82 712.035Z" fill="black"/>
<path d="M196.603 769.93C202.028 769.965 224.471 773.895 230.27 774.745L303.776 785.885C310.066 786.89 334.848 790.72 339.601 793.05C340.74 795.255 339.725 798 339.106 800.35C333.037 803.18 291.577 798.115 281.555 797.555C261.763 796.445 240.182 794.76 220.271 793.08C217.092 792.815 211.179 792.055 208.163 790.535C203.006 786.785 197.81 775.91 196.603 769.93Z" fill="black"/>
<path d="M349.474 781.085C352.083 781 350.226 782.005 351.884 782.125C353.454 782.24 354.864 781.77 356.438 782.565C357.329 784.055 357.161 785.23 357.204 786.985C354.533 787.515 353.914 787.345 351.348 786.455L350.411 786.12C348.748 785.55 347.701 785.395 346.393 784.195C346.869 782.5 347.631 782.525 349.474 781.085Z" fill="black" fill-opacity="0.129412"/>
<path d="M594.73 560.09C597.645 560.72 609.375 566.11 613.585 567.585C633.385 574.515 654.205 578.075 675.18 578.11C701.07 578.11 730.89 573.085 754.16 561.115C758.34 558.965 758.32 565.995 759.125 569.27C759.965 572.69 760.245 577.36 760.515 580.895C754 588.87 747.1 593.255 741.18 602.87C726.965 625.95 722.565 648.32 718.475 674.695C715.025 697.47 712.165 720.33 709.89 743.25C708.845 753.24 708.535 761.485 707.19 771.755L701.28 838.455C686.02 838.825 667.82 838.755 652.595 838.375C650.82 813.73 647.835 788.875 645.64 764.24C642.97 734.315 639.42 704.515 634.62 674.84C629.91 645.705 623.48 613.815 603.135 591.245C600.255 588.05 593.345 584 591.34 580.635C589.85 578.13 593.675 562.695 594.73 560.09Z" fill="black"/>
</svg>
