<svg width="1024" height="1024" viewBox="0 0 1024 1024" fill="none" xmlns="http://www.w3.org/2000/svg">
<path d="M511.525 78.6125C512.68 78.77 513.845 78.929 514.985 79.201C520.105 80.428 526.505 86.959 530.225 90.487C551.47 110.647 569.165 133.529 584.315 158.563C681.03 318.383 690.595 540.075 657.05 719.69C653.23 740.155 648.16 760.585 643.195 780.805C646.14 789.47 651.57 795.595 655.955 803.65C667.96 825.86 677.045 850.99 675.82 876.575C675.48 883.645 671.515 887.295 666.61 880.435C663.2 875.67 660.43 870.27 656.93 865.55C650.78 857.25 642.505 849.66 633.79 844.135C631.215 842.53 628.49 841.41 625.75 839.77C625.675 839.91 625.595 840.045 625.52 840.18L625.15 840.87C621.83 846.945 617.1 862.77 614.395 869.965C607.1 889.665 599.75 908.74 590.3 927.585C584.365 939.425 571.525 950.65 557.355 944.74C552.815 942.825 549.425 938.37 545.77 935.48C536.34 928.02 524.73 913.67 514.375 908.065L513.66 907.68L513.11 907.535C503.365 909.11 480.311 936.535 469.864 943.49C465.25 946.565 459.881 946.81 454.58 945.61C449.047 944.355 443.739 941.37 439.986 937.085C431.644 927.555 415.123 881.63 410.14 867.495C406.962 858.48 404.42 848.26 399.252 840.17L398.858 839.56C383.799 848.195 373.401 857.14 363.744 871.815C361.441 875.315 358.023 882.575 354.542 884.22C345.561 884.31 349.515 861.96 350.252 856.39C353.446 832.25 364.407 810.635 377.372 790.365C383.519 782.07 380.164 774.08 377.819 764.785C373.68 748.38 370.389 732.015 367.237 715.3C362.313 690.195 358.572 664.875 356.026 639.42C339.855 485.143 356.288 299.023 437.071 163.61C452.224 137.712 470.724 113.923 492.093 92.858C496.676 88.3925 505.265 80.1955 511.525 78.6125ZM504.345 184.014C502.19 191.602 503.015 220.571 503.02 229.876L503.055 303.919L503.075 629.71L503.125 788.665L503.085 832.87C503.075 841.125 502.675 853.05 503.79 860.8C507.695 864.335 508.64 865.79 513.945 865.59C516.49 864.205 520.155 861.9 520.435 858.85C521.57 846.31 521.07 829.805 521.06 817.34L520.9 707.475L521.04 369.391L521.055 250.491C521.06 230.907 521.105 211.283 521.065 191.695C521.06 188.39 520.195 186.003 518.93 183C515.27 180.62 514.54 179.857 510.095 180.02C507.24 181.465 506.7 181.97 504.345 184.014Z" fill="black"/>
</svg>
