<svg width="1024" height="1024" viewBox="0 0 1024 1024" fill="none" xmlns="http://www.w3.org/2000/svg">
<path d="M246.366 473.77C257.733 472.599 269.908 472.963 281.398 472.986L332.172 473.203L487.714 473.331L712.815 473.263L788.43 473.231C806.59 473.161 824.39 472.979 842.515 473.921C870.7 475.385 872.96 491.972 887.43 511.165C907.35 537.43 927.07 563.915 948.255 589.185C951.97 593.615 959.77 601.365 959.25 607.345C956.56 609.37 906.745 608.33 899.955 608.315L789.7 608.285L416.646 608.36L227.291 608.3L170.95 608.48C159.762 608.51 148.186 608.985 136.995 607.76C101.059 603.825 70.6606 576.615 69.8606 539.26C69.1736 507.16 87.9331 492.604 109.152 472.799C120.994 461.746 132.772 449.693 144.13 438.097C156.566 424.754 167.348 416.746 186.014 416.681C222.784 416.767 244.461 452.466 222.683 483.814C211.996 499.197 201.687 515.89 190.643 531.39C176.774 550.85 166.067 571.865 138.585 571.225C119.731 571.27 103.292 556.065 104.084 536.74C104.697 521.765 117.423 508.485 132.955 510.47C138.29 511.125 143.12 513.95 146.307 518.28C149.943 523.275 149.626 526.985 148.868 532.58C146.988 535.48 145.804 536.205 143.083 538.135C140.13 536.51 139.607 535.775 137.775 532.985C133.44 524.665 124.904 528.445 124.291 536.225C122.838 554.675 146.004 554.505 155.996 546.15C161.285 541.775 164.509 535.395 164.89 528.545C165.827 510.82 149.943 495.773 132.397 495.583C107.073 495.309 90.8691 512.685 89.9386 537.61C89.6876 536 89.4891 534.92 89.0976 533.34H88.7966C88.2026 536.875 88.1151 541.49 88.5271 545.07L89.0486 544.915L89.1141 544.275C89.2931 542.665 89.1416 542.655 89.9651 541.405C93.2671 574.37 126.268 594.09 157.16 585.475C165.803 583.035 173.748 578.595 180.35 572.51C193.778 559.915 209.055 532.905 219.622 516.78C227.946 504.08 239.009 486.825 246.366 473.77Z" fill="black"/>
<path d="M89.9651 541.405C89.1416 542.655 89.2931 542.665 89.1141 544.275L89.0486 544.915L88.5271 545.07C88.1151 541.49 88.2026 536.875 88.7966 533.34H89.0976C89.4891 534.92 89.6876 536 89.9386 537.61L89.9651 541.405Z" fill="black" fill-opacity="0.972549"/>
</svg>
