<svg width="230" height="200" viewBox="0 0 230 200" fill="none" xmlns="http://www.w3.org/2000/svg">
<path d="M73 2.75879C73.492 3.52335 74.1208 4.50453 74.8701 5.68555C76.8615 8.82401 79.708 13.371 83.124 19.001C89.9569 30.2624 99.066 45.8495 108.173 63.1562C117.282 80.4672 126.376 99.4757 133.189 117.582C140.015 135.72 144.5 152.82 144.5 166.357C144.5 173.02 142.559 178.266 139.107 182.437C135.634 186.633 130.545 189.841 124.096 192.243C111.157 197.063 93.142 198.5 73 198.5C52.858 198.5 34.843 197.063 21.9043 192.243C15.4547 189.841 10.3662 186.633 6.89258 182.437C3.44066 178.266 1.50006 173.02 1.5 166.357C1.5 152.82 5.98476 135.72 12.8105 117.582C19.6243 99.4757 28.7181 80.4672 37.8271 63.1562C46.934 45.8495 56.0431 30.2624 62.876 19.001C66.292 13.371 69.1385 8.82401 71.1299 5.68555C71.8792 4.50453 72.508 3.52335 73 2.75879Z" fill="#627E59" stroke="white" stroke-width="3"/>
<path d="M157.5 2.77246C157.987 3.53447 158.608 4.50966 159.347 5.68164C161.324 8.82005 164.15 13.3674 167.543 18.9971C174.329 30.2585 183.376 45.8464 192.421 63.1533C201.467 80.4641 210.499 99.4717 217.267 117.578C224.046 135.717 228.5 152.818 228.5 166.357C228.5 173.023 226.572 178.27 223.144 182.44C219.694 186.636 214.642 189.843 208.238 192.244C195.392 197.062 177.504 198.5 157.5 198.5C137.496 198.5 119.608 197.062 106.762 192.244C100.358 189.843 95.3057 186.636 91.8564 182.44C88.4283 178.27 86.5001 173.023 86.5 166.357C86.5 152.818 90.9543 135.717 97.7334 117.578C104.501 99.4717 113.533 80.4641 122.579 63.1533C131.624 45.8464 140.671 30.2585 147.457 18.9971C150.85 13.3672 153.677 8.82006 155.654 5.68164C156.393 4.50973 157.013 3.53443 157.5 2.77246Z" fill="#506648" stroke="white" stroke-width="3"/>
<path d="M116.438 78.1543L115.198 79C116.367 78.2016 116.433 78.1573 116.438 78.1553C116.438 78.1557 116.439 78.1564 116.439 78.1572C116.441 78.159 116.442 78.1618 116.444 78.165C116.449 78.172 116.457 78.1827 116.466 78.1963C116.484 78.2234 116.511 78.2638 116.547 78.3164C116.618 78.4219 116.724 78.5779 116.861 78.7822C117.136 79.1915 117.539 79.7942 118.05 80.5703C119.072 82.1226 120.53 84.3701 122.28 87.1543C125.779 92.7215 130.447 100.444 135.116 109.057C139.783 117.666 144.465 127.19 147.984 136.358C151.492 145.497 153.896 154.414 153.896 161.767C153.896 180.553 136.358 195.424 115.198 195.424C94.0383 195.424 76.5 180.553 76.5 161.767C76.5 154.414 78.9045 145.497 82.4121 136.358C85.9312 127.19 90.6133 117.666 95.2803 109.057C99.9496 100.444 104.617 92.7215 108.116 87.1543C109.866 84.3701 111.325 82.1226 112.348 80.5703C112.859 79.7943 113.26 79.1915 113.535 78.7822C113.672 78.5779 113.778 78.4219 113.85 78.3164C113.885 78.2639 113.912 78.2234 113.931 78.1963C113.94 78.1827 113.947 78.172 113.952 78.165C113.954 78.1616 113.957 78.1591 113.958 78.1572L113.959 78.1553C113.959 78.1548 113.959 78.1544 114.879 78.7822L113.96 78.1543L115.198 76.3398L116.438 78.1543Z" fill="#C9A544" stroke="white" stroke-width="3"/>
<path d="M152.148 157.456C152.311 158.928 152.396 160.348 152.396 161.709C152.396 179.543 135.742 194 115.198 194C94.6545 194 78.0003 179.543 78 161.709C78 160.348 78.0866 158.928 78.249 157.456H152.148Z" fill="#645C3F"/>
<path d="M149.985 146.997C151.5 152.35 152.396 157.373 152.396 161.766C152.396 163.923 152.149 166.029 151.681 168.066H78.7158C78.2477 166.029 78 163.923 78 161.766C78 157.373 78.8965 152.35 80.4111 146.997H149.985Z" fill="url(#paint0_linear_1_39)"/>
<defs>
<linearGradient id="paint0_linear_1_39" x1="115.198" y1="150.828" x2="115.198" y2="162.32" gradientUnits="userSpaceOnUse">
<stop stop-color="#C9A544"/>
<stop offset="1" stop-color="#645C3F"/>
</linearGradient>
</defs>
</svg>
